<svg xmlns="http://www.w3.org/2000/svg" viewBox="0 0 360 240">
  <defs>
    <linearGradient id="bg" x1="0" x2="1" y1="0" y2="1">
      <stop offset="0%" stop-color="#1f1140" />
      <stop offset="100%" stop-color="#060312" />
    </linearGradient>
    <radialGradient id="pulse" cx="50%" cy="50%" r="50%">
      <stop offset="0%" stop-color="#ff6bce" stop-opacity="0.4" />
      <stop offset="80%" stop-color="#ff6bce" stop-opacity="0" />
    </radialGradient>
    <linearGradient id="route" x1="0" x2="1">
      <stop offset="0%" stop-color="#ff9f1c" />
      <stop offset="100%" stop-color="#ff6bce" />
    </linearGradient>
  </defs>
  <rect width="360" height="240" fill="url(#bg)" />
  <circle cx="280" cy="60" r="60" fill="url(#pulse)" />
  <path
    d="M60 180 Q120 140 160 160 T240 120 Q280 90 310 110"
    fill="none"
    stroke="url(#route)"
    stroke-width="6"
    stroke-linecap="round"
    stroke-dasharray="12 12"
    opacity="0.75"
  />
  <g fill="#ffffff">
    <circle cx="60" cy="180" r="8" fill="#ff6bce" />
    <circle cx="120" cy="145" r="7" fill="#ff9f1c" />
    <circle cx="180" cy="150" r="6" fill="#ff6bce" />
    <circle cx="240" cy="120" r="8" fill="#ffc72c" />
    <circle cx="310" cy="110" r="9" fill="#ff6bce" />
  </g>
  <g>
    <rect x="32" y="28" width="120" height="70" rx="12" fill="#120923" opacity="0.85" />
    <circle cx="50" cy="48" r="10" fill="#ff6bce" />
    <rect x="65" y="40" width="70" height="10" rx="5" fill="#f8fafc" opacity="0.7" />
    <rect x="65" y="58" width="60" height="8" rx="4" fill="#f8fafc" opacity="0.35" />
  </g>
  <g>
    <rect x="208" y="165" width="120" height="50" rx="12" fill="#0d0b1d" opacity="0.8" />
    <rect x="228" y="180" width="40" height="10" rx="5" fill="#f8fafc" opacity="0.6" />
    <rect x="228" y="195" width="70" height="6" rx="3" fill="#f8fafc" opacity="0.3" />
  </g>
  <text x="24" y="226" fill="#f8fafc" font-size="16" font-family="Rubik, Arial" opacity="0.75">
    מפה שמורה למצב חסכון
  </text>
</svg>
