<svg xmlns="http://www.w3.org/2000/svg" viewBox="0 0 360 240">
  <defs>
    <linearGradient id="sky" x1="0" x2="0" y1="0" y2="1">
      <stop offset="0%" stop-color="#25164a" />
      <stop offset="100%" stop-color="#08030f" />
    </linearGradient>
    <radialGradient id="moon" cx="30%" cy="25%" r="40%">
      <stop offset="0%" stop-color="#f7f4c7" />
      <stop offset="100%" stop-color="#f7f4c700" />
    </radialGradient>
    <linearGradient id="windows" x1="0" x2="1">
      <stop offset="0%" stop-color="#ff9f1c" />
      <stop offset="100%" stop-color="#ff6bce" />
    </linearGradient>
  </defs>
  <rect width="360" height="240" fill="url(#sky)" />
  <circle cx="110" cy="70" r="60" fill="url(#moon)" />
  <g fill="#120923">
    <path d="M70 210L90 130L110 210Z" />
    <path d="M110 210L150 90L190 210Z" />
    <path d="M190 210L220 140L250 210Z" />
    <path d="M240 210L260 150L280 210Z" />
  </g>
  <g fill="url(#windows)">
    <rect x="122" y="140" width="18" height="28" rx="3" />
    <rect x="150" y="120" width="20" height="32" rx="3" />
    <rect x="208" y="158" width="16" height="24" rx="3" />
    <rect x="238" y="170" width="14" height="22" rx="3" />
  </g>
  <path d="M0 210 Q180 160 360 210 L360 240 L0 240Z" fill="#05030c" />
  <g fill="#21112f">
    <ellipse cx="80" cy="218" rx="48" ry="14" />
    <ellipse cx="220" cy="224" rx="52" ry="16" />
  </g>
  <g fill="#f8fafc" opacity="0.14">
    <path d="M40 80 Q60 60 70 90T100 100" stroke-width="4" stroke="#f8fafc" fill="none" />
    <path d="M260 60 Q280 50 300 70" stroke-width="5" stroke="#f8fafc" fill="none" />
  </g>
</svg>
